# xmcd
#
# Track frame offsets:
# 150
# 11649
# 24024
# 41297
# 54804
# 73183
# 80546
# 88444
# 105707
# 119546
# 131590
# 145286
# 152854
# 168469
# 174690
#
# Disc length: 2583 seconds
#
#
# Revision: 0
# Processed by: cddbd v1.5.2PL0 Copyright (c) Steve Scherf et al.
# Submitted via: FreeRIP 2.96 
#
DISCID=c80a150f
DTITLE=Stoney Joe [AUS] - Fuel for the Fire
DYEAR=2016
DGENRE=Bluegrass
TTITLE0=Green Gums [from 'Fuel for the Fire', Jun 2016] [MLVox]
TTITLE1=No More Roving [from 'Fuel for the Fire', Jun 2016] [MLVox]
TTITLE2=The Roadhouse Man [from 'Fuel for the Fire', Jun 2016] [MLVox]
TTITLE3=Smoke and Fire [from 'Fuel for the Fire', Jun 2016] [MLVox]
TTITLE4=Big Wheel [Not a cover, however uses lyrics based on CCR's 'Proud Mary', 1969] [from 'Fuel for the Fire', Jun 2016] [MLVox]
TTITLE5=Broken String Theory [from 'Fuel for the Fire', Jun 2016] [MLVox]
TTITLE6=Holy Waters [from 'Fuel for the Fire', Jun 2016] [MLVox]
TTITLE7=Use Your Mind [from 'Fuel for the Fire', Jun 2016] [MLVox]
TTITLE8=Rising Water [from 'Fuel for the Fire', Jun 2016] [MLVox]
TTITLE9=Hammerfall [from 'Fuel for the Fire', Jun 2016] [MLVox]
TTITLE10=I Been Around [from 'Fuel for the Fire', Jun 2016] [MLVox]
TTITLE11=Churn [from 'Fuel for the Fire', Jun 2016] [MLVox]
TTITLE12=Southern Line [from 'Fuel for the Fire', Jun 2016] [MLVox]
TTITLE13=Walking with My Sorrow [from 'Fuel for the Fire', Jun 2016] [MLVox]
TTITLE14=Into the Wild [CD only hidden track] [from 'Fuel for the Fire', Jun 2016] [MLVox]
EXTD=Australian band originating from Perth, Western Australia
EXTT0=
EXTT1=
EXTT2=
EXTT3=
EXTT4=
EXTT5=
EXTT6=
EXTT7=
EXTT8=
EXTT9=
EXTT10=
EXTT11=
EXTT12=
EXTT13=
EXTT14=
PLAYORDER=
